<svg xmlns="http://www.w3.org/2000/svg" xmlns:xlink="http://www.w3.org/1999/xlink" width="96" height="68" viewBox="0 0 96 68">
    <defs>
        <path id="a" d="M0 67.392h95.351V0H0z"/>
    </defs>
    <g fill="none" fill-rule="evenodd">
        <path fill="#000" d="M35.993 64.166c.6.24 1.804.957 4.087.957 3.485 0 3.967-2.51 3.967-3.705v-1.313c-.122.118-.36.238-.602.478-.24.119-.48.357-.842.597-.36.12-.72.36-1.201.478-.48.12-.962.238-1.684.238-.96 0-1.803-.238-2.643-.596-.722-.36-1.442-.717-1.922-1.315-.482-.596-.963-1.315-1.203-2.15-.24-.836-.36-1.79-.36-2.747 0-1.075.12-2.032.481-2.866.36-.957.96-1.673 1.562-2.392.72-.596 1.564-1.073 2.524-1.43.841-.361 1.923-.6 3.125-.6 1.08 0 2.163.12 3.125.239.962.24 1.683.478 2.283.718v12.661c0 2.031-.721 5.974-6.61 5.974-3.245 0-4.687-.956-5.289-1.195l1.202-2.031zm8.054-13.617c-.122-.119-.482-.119-.842-.24a7.648 7.648 0 0 0-1.923-.239c-.72 0-1.442.12-2.044.36-.602.239-1.201.597-1.563 1.073-.478.479-.84.957-1.082 1.553-.24.599-.36 1.315-.36 2.032 0 .598.12 1.195.242 1.673.118.596.36 1.075.722 1.431.36.478.718.838 1.2 1.077.481.24 1.081.24 1.803.24.6 0 1.202 0 1.684-.24.478-.239.96-.477 1.2-.717.361-.36.603-.716.721-1.195.12-.358.242-.716.242-1.195V50.55zM50.039 51.154V48.28h2.51v1.915c.24-.24.48-.478.718-.838.24-.239.478-.479.955-.719.36-.238.718-.478 1.196-.596.598-.122 1.076-.24 1.676-.24 1.792 0 3.106.478 3.942 1.555.958 1.078 1.316 2.515 1.316 4.19v8.262h-2.63v-8.022c0-1.317-.24-2.155-.836-2.752-.478-.6-1.314-.958-2.272-.958-.716 0-1.434.238-1.913.478a5.56 5.56 0 0 0-1.194 1.197c-.36.478-.478 1.078-.718 1.795-.12.6-.12 1.198-.12 1.917v6.345h-2.63V51.154z"/>
        <mask id="b" fill="#fff">
            <use xlink:href="#a"/>
        </mask>
        <path fill="#000" d="M65.503 61.802h2.662V48.29h-2.662zM73.026 50.547h-2.4v-2.264h2.4v-3.811h2.64v3.811h3.961v2.264h-3.96v6.434c0 1.07.24 1.904.48 2.262.359.358.839.596 1.56.596.48 0 .839 0 1.2-.238.36-.12.72-.358.96-.716l1.2 1.669c-.48.476-1.08.953-1.68 1.191-.6.238-1.321.356-2.161.356-1.438 0-2.52-.356-3.12-1.19-.72-.833-1.08-2.026-1.08-3.692v-6.672zM94.99 59.722l-.717.715c-.239.238-.717.476-1.197.715-.476.238-1.076.474-1.794.712-.596.119-1.434.239-2.27.239-1.078 0-2.034-.12-2.872-.477-.836-.356-1.674-.833-2.272-1.547-.598-.595-1.076-1.428-1.434-2.26-.36-.951-.48-1.904-.48-2.977 0-.95.12-1.902.48-2.737.358-.95.836-1.663 1.434-2.26.598-.713 1.316-1.19 2.154-1.547.836-.357 1.672-.595 2.75-.595 1.076 0 2.152.238 2.99.715.838.476 1.554 1.07 2.032 1.785.479.713.958 1.546 1.197 2.499.24.953.358 2.022.358 2.975H84.586c0 .594.238 1.19.478 1.665.24.477.478.951.958 1.31.358.356.836.714 1.434.952.478.118 1.078.237 1.556.237 1.194 0 2.152-.119 2.87-.595.718-.356 1.316-.715 1.674-1.071l1.435 1.547zm-2.39-5.95c0-1.07-.36-1.903-1.078-2.738-.716-.713-1.554-1.069-2.75-1.069-.718 0-1.196.118-1.794.356-.478.239-.838.475-1.196.833-.36.357-.598.715-.836 1.19-.24.476-.36.952-.36 1.429H92.6zM65.503 46.426h2.662v-2.444h-2.662zM24.221 62.102a7.787 7.787 0 0 1-2.872-.593c-.838-.358-1.676-.835-2.274-1.55-.596-.594-1.076-1.427-1.436-2.26-.358-.832-.598-1.785-.598-2.738 0-1.07.24-2.022.598-2.855.36-.833.84-1.665 1.436-2.26.598-.715 1.436-1.191 2.274-1.547a7.715 7.715 0 0 1 2.872-.597c1.076 0 2.034.238 2.872.597.958.356 1.676.832 2.274 1.547.718.595 1.196 1.427 1.554 2.26.36.833.6 1.786.6 2.855 0 .953-.24 1.906-.6 2.738-.358.833-.836 1.666-1.554 2.26-.598.715-1.316 1.192-2.274 1.55a7.314 7.314 0 0 1-2.872.593m0-2.26c.718 0 1.436-.12 1.914-.477a3.25 3.25 0 0 0 1.436-1.071c.48-.475.718-.951.958-1.546.118-.596.24-1.19.24-1.787 0-.595-.122-1.307-.24-1.902-.24-.476-.478-1.073-.958-1.547a3.25 3.25 0 0 0-1.436-1.071c-.478-.357-1.196-.477-1.914-.477s-1.316.12-1.914.477c-.478.238-.958.594-1.436 1.07-.36.475-.598.952-.838 1.548a4.925 4.925 0 0 0-.36 1.902c0 .596.122 1.191.36 1.787.24.595.478 1.071.956 1.546.36.476.84.833 1.438 1.071.478.356 1.076.476 1.794.476M15.464 58.66c-.118.354-.48.713-.838 1.067-.48.358-.96.833-1.44 1.07-.598.356-1.317.712-2.037.95-.72.237-1.558.355-2.398.355-1.318 0-2.518-.237-3.596-.711-.96-.356-1.918-1.07-2.638-1.782a7.197 7.197 0 0 1-1.797-2.85C.24 55.694 0 54.506 0 53.2c0-1.305.24-2.492.72-3.563a7.204 7.204 0 0 1 1.797-2.847 8.654 8.654 0 0 1 2.638-2.018 11.39 11.39 0 0 1 3.596-.595c.96 0 1.8 0 2.518.238.72.237 1.32.595 1.918.831.48.357.96.713 1.317 1.187.362.357.72.711.96 1.07l-1.798 1.541c-.118-.354-.358-.592-.72-.949-.24-.356-.597-.592-.957-.83-.48-.237-.84-.475-1.438-.713a7.367 7.367 0 0 0-1.8-.237 5.62 5.62 0 0 0-2.518.593c-.72.356-1.438.83-1.916 1.426-.602.594-.96 1.303-1.2 2.136-.36.83-.48 1.78-.48 2.61 0 .95.24 1.783.48 2.614.24.829.72 1.541 1.2 2.136.478.593 1.196 1.07 1.916 1.424.72.356 1.56.474 2.518.474.72 0 1.44 0 1.918-.236.6-.238 1.08-.477 1.44-.713.48-.236.72-.593.96-.83.24-.239.48-.475.717-.714l1.678 1.426zM65.493 14.675v-3.102c0-1.55-1.2-2.744-2.638-2.744-1.56 0-2.76 1.194-2.76 2.744v3.937c-1.557.358-3.355.716-5.155 1.075V2.624c0-1.43-1.2-2.624-2.758-2.624-1.438 0-2.638 1.195-2.638 2.624v15.273c-.12 0-.24 0-.48.119-1.677.358-3.235.716-4.795 1.074V7.28c0-1.434-1.2-2.627-2.64-2.627-1.438 0-2.637 1.193-2.637 2.626v13.002c-1.918.36-3.596.717-5.274.955v-6.085c0-1.43-1.2-2.624-2.638-2.624-1.44 0-2.64 1.193-2.64 2.624v6.802c-5.995.716-9.47.478-9.832-.597-.838-1.791 4.677-4.295 6.235-5.13v-.118h-.12c-1.558.595-8.273 3.339-7.433 5.725.838 2.626 11.15 3.342 32.614-1.908 17.987-4.415 26.26-5.25 27.1-3.579.6 1.43-3.838 4.176-8.153 6.085-.12.118-.12.238-.12.356.12.12.238.239.36.12 1.557-.596 9.712-4.055 9.35-6.92-.357-1.908-4.675-2.505-12.948-1.312M28.467 27.233v2.005c0 1.416 1.186 2.596 2.611 2.596 1.423 0 2.61-1.18 2.61-2.596v-2.594c-1.9.353-3.679.473-5.221.59M39.007 25.757v7.274c0 1.433 1.186 2.624 2.611 2.624 1.423 0 2.61-1.191 2.61-2.624v-8.347c-1.78.478-3.559.835-5.221 1.073" mask="url(#b)"/>
        <path fill="#000" d="M49.907 23.522h-.36v5.111c0 1.424 1.204 2.613 2.65 2.613 1.565 0 2.766-1.189 2.766-2.613v-6.3c-1.565.358-3.249.713-5.056 1.19M60.086 21.148v3.084c0 1.422 1.206 2.607 2.77 2.607 1.445 0 2.648-1.185 2.648-2.607v-4.15c-1.565.354-3.37.71-5.418 1.066" mask="url(#b)"/>
    </g>
</svg>
